<?xml version="1.0" encoding="UTF-8" standalone="no"?>
<!DOCTYPE svg PUBLIC "-//W3C//DTD SVG 1.1//EN"
 "http://www.w3.org/Graphics/SVG/1.1/DTD/svg11.dtd">
<!-- Generated by graphviz version 2.40.1 (0)
 -->
<!-- Title: %3 Pages: 1 -->
<svg width="310pt" height="305pt"
 viewBox="0.00 0.00 309.89 305.00" xmlns="http://www.w3.org/2000/svg" xmlns:xlink="http://www.w3.org/1999/xlink">
<g id="graph0" class="graph" transform="scale(1 1) rotate(0) translate(4 301)">
<title>%3</title>
<polygon fill="#ffffff" stroke="transparent" points="-4,4 -4,-301 305.8904,-301 305.8904,4 -4,4"/>
<!-- 0 -->
<g id="node1" class="node">
<title>0</title>
<ellipse fill="none" stroke="#000000" cx="107.8904" cy="-279" rx="60.3893" ry="18"/>
<text text-anchor="middle" x="107.8904" y="-275.3" font-family="Times,serif" font-size="14.00" fill="#000000">start_node</text>
</g>
<!-- 1 -->
<g id="node2" class="node">
<title>1</title>
<ellipse fill="none" stroke="#000000" cx="107.8904" cy="-192" rx="107.781" ry="18"/>
<text text-anchor="middle" x="107.8904" y="-188.3" font-family="Times,serif" font-size="14.00" fill="#000000">duplicate_input_msg</text>
</g>
<!-- 0&#45;&gt;1 -->
<g id="edge1" class="edge">
<title>0&#45;&gt;1</title>
<path fill="none" stroke="#000000" d="M107.8904,-260.9735C107.8904,-249.1918 107.8904,-233.5607 107.8904,-220.1581"/>
<polygon fill="#000000" stroke="#000000" points="111.3905,-220.0033 107.8904,-210.0034 104.3905,-220.0034 111.3905,-220.0033"/>
<text text-anchor="middle" x="145.8904" y="-231.8" font-family="Times,serif" font-size="14.00" fill="#000000">input_msg</text>
</g>
<!-- 2 -->
<g id="node3" class="node">
<title>2</title>
<ellipse fill="none" stroke="#000000" cx="59.8904" cy="-105" rx="38.1938" ry="18"/>
<text text-anchor="middle" x="59.8904" y="-101.3" font-family="Times,serif" font-size="14.00" fill="#000000">add_1</text>
</g>
<!-- 1&#45;&gt;2 -->
<g id="edge2" class="edge">
<title>1&#45;&gt;2</title>
<path fill="none" stroke="#000000" d="M53.7963,-176.4046C44.7064,-171.3555 36.4363,-164.7149 30.8904,-156 25.3375,-147.2739 28.7529,-137.446 34.8955,-128.7633"/>
<polygon fill="#000000" stroke="#000000" points="37.7501,-130.8031 41.4167,-120.8629 32.3516,-126.347 37.7501,-130.8031"/>
<text text-anchor="middle" x="97.3904" y="-144.8" font-family="Times,serif" font-size="14.00" fill="#000000">input_msg_copy_1</text>
</g>
<!-- 3 -->
<g id="node4" class="node">
<title>3</title>
<ellipse fill="none" stroke="#000000" cx="169.8904" cy="-105" rx="38.1938" ry="18"/>
<text text-anchor="middle" x="169.8904" y="-101.3" font-family="Times,serif" font-size="14.00" fill="#000000">add_2</text>
</g>
<!-- 1&#45;&gt;3 -->
<g id="edge3" class="edge">
<title>1&#45;&gt;3</title>
<path fill="none" stroke="#000000" d="M144.8246,-174.8827C152.2314,-169.8127 159.1761,-163.5483 163.8904,-156 168.0464,-149.3458 170.0541,-141.24 170.8994,-133.4669"/>
<polygon fill="#000000" stroke="#000000" points="174.407,-133.4071 171.4242,-123.2409 167.4162,-133.0483 174.407,-133.4071"/>
<text text-anchor="middle" x="235.3904" y="-144.8" font-family="Times,serif" font-size="14.00" fill="#000000">input_msg_copy_2</text>
</g>
<!-- 4 -->
<g id="node5" class="node">
<title>4</title>
<ellipse fill="none" stroke="#000000" cx="106.8904" cy="-18" rx="78.7863" ry="18"/>
<text text-anchor="middle" x="106.8904" y="-14.3" font-family="Times,serif" font-size="14.00" fill="#000000">wait_additions</text>
</g>
<!-- 2&#45;&gt;4 -->
<g id="edge4" class="edge">
<title>2&#45;&gt;4</title>
<path fill="none" stroke="#000000" d="M61.7709,-86.6783C63.3907,-76.563 66.3837,-64.0513 71.8904,-54 73.9636,-50.2158 76.5437,-46.5491 79.357,-43.0959"/>
<polygon fill="#000000" stroke="#000000" points="82.1303,-45.2463 86.2163,-35.4711 76.9262,-40.5647 82.1303,-45.2463"/>
<text text-anchor="middle" x="105.3904" y="-57.8" font-family="Times,serif" font-size="14.00" fill="#000000">additions</text>
</g>
<!-- 3&#45;&gt;4 -->
<g id="edge5" class="edge">
<title>3&#45;&gt;4</title>
<path fill="none" stroke="#000000" d="M160.3021,-87.4998C154.5226,-77.4164 146.7726,-64.6664 138.8904,-54 136.3186,-50.5197 133.4789,-46.9754 130.5847,-43.5351"/>
<polygon fill="#000000" stroke="#000000" points="133.0378,-41.0224 123.8332,-35.7758 127.757,-45.6173 133.0378,-41.0224"/>
<text text-anchor="middle" x="183.3904" y="-57.8" font-family="Times,serif" font-size="14.00" fill="#000000">additions</text>
</g>
</g>
</svg>
