<?xml version="1.0" encoding="UTF-8" standalone="no"?>
<!DOCTYPE svg PUBLIC "-//W3C//DTD SVG 1.1//EN"
 "http://www.w3.org/Graphics/SVG/1.1/DTD/svg11.dtd">
<!-- Generated by graphviz version 2.40.1 (0)
 -->
<!-- Title: %3 Pages: 1 -->
<svg width="234pt" height="452pt"
 viewBox="0.00 0.00 233.50 452.00" xmlns="http://www.w3.org/2000/svg" xmlns:xlink="http://www.w3.org/1999/xlink">
<g id="graph0" class="graph" transform="scale(1 1) rotate(0) translate(4 448)">
<title>%3</title>
<polygon fill="#ffffff" stroke="transparent" points="-4,4 -4,-448 229.5,-448 229.5,4 -4,4"/>
<!-- 0 -->
<g id="node1" class="node">
<title>0</title>
<path fill="none" stroke="#000000" d="M89.5,-444C89.5,-444 59.5,-444 59.5,-444 53.5,-444 47.5,-438 47.5,-432 47.5,-432 47.5,-420 47.5,-420 47.5,-414 53.5,-408 59.5,-408 59.5,-408 89.5,-408 89.5,-408 95.5,-408 101.5,-414 101.5,-420 101.5,-420 101.5,-432 101.5,-432 101.5,-438 95.5,-444 89.5,-444"/>
<text text-anchor="middle" x="74.5" y="-422.3" font-family="Times,serif" font-size="14.00" fill="#000000">start</text>
</g>
<!-- 1 -->
<g id="node2" class="node">
<title>1</title>
<path fill="none" stroke="#000000" d="M126.5,-342C126.5,-342 22.5,-342 22.5,-342 16.5,-342 10.5,-336 10.5,-330 10.5,-330 10.5,-318 10.5,-318 10.5,-312 16.5,-306 22.5,-306 22.5,-306 126.5,-306 126.5,-306 132.5,-306 138.5,-312 138.5,-318 138.5,-318 138.5,-330 138.5,-330 138.5,-336 132.5,-342 126.5,-342"/>
<text text-anchor="middle" x="74.5" y="-320.3" font-family="Times,serif" font-size="14.00" fill="#000000">duplicate_input</text>
</g>
<!-- 0&#45;&gt;1 -->
<g id="edge1" class="edge">
<title>0&#45;&gt;1</title>
<path fill="none" stroke="#000000" d="M74.5,-407.7644C74.5,-392.317 74.5,-369.9149 74.5,-352.164"/>
<polygon fill="none" stroke="#000000" points="78.0001,-352.0776 74.5,-342.0777 71.0001,-352.0777 78.0001,-352.0776"/>
<text text-anchor="start" x="74.5" y="-378.8" font-family="Times,serif" font-size="14.00" fill="#000000">input</text>
<text text-anchor="middle" x="93.5" y="-363.8" font-family="Times,serif" font-size="14.00" fill="#000000">i32</text>
</g>
<!-- 2 -->
<g id="node3" class="node">
<title>2</title>
<path fill="none" stroke="#000000" d="M47,-240C47,-240 12,-240 12,-240 6,-240 0,-234 0,-228 0,-228 0,-216 0,-216 0,-210 6,-204 12,-204 12,-204 47,-204 47,-204 53,-204 59,-210 59,-216 59,-216 59,-228 59,-228 59,-234 53,-240 47,-240"/>
<text text-anchor="middle" x="29.5" y="-218.3" font-family="Times,serif" font-size="14.00" fill="#000000">add_1</text>
</g>
<!-- 1&#45;&gt;2 -->
<g id="edge2" class="edge">
<title>1&#45;&gt;2</title>
<path fill="none" stroke="#000000" d="M33.2327,-305.8754C26.5212,-301.0555 20.4753,-295.1462 16.5,-288 10.0045,-276.3232 11.9117,-261.9006 16.0083,-249.5189"/>
<polygon fill="none" stroke="#000000" points="19.3013,-250.7073 19.6444,-240.1181 12.7726,-248.1821 19.3013,-250.7073"/>
<text text-anchor="start" x="16.5" y="-276.8" font-family="Times,serif" font-size="14.00" fill="#000000">input_copy_1</text>
<text text-anchor="middle" x="64.5" y="-261.8" font-family="Times,serif" font-size="14.00" fill="#000000">i32</text>
</g>
<!-- 3 -->
<g id="node4" class="node">
<title>3</title>
<path fill="none" stroke="#000000" d="M150,-240C150,-240 115,-240 115,-240 109,-240 103,-234 103,-228 103,-228 103,-216 103,-216 103,-210 109,-204 115,-204 115,-204 150,-204 150,-204 156,-204 162,-210 162,-216 162,-216 162,-228 162,-228 162,-234 156,-240 150,-240"/>
<text text-anchor="middle" x="132.5" y="-218.3" font-family="Times,serif" font-size="14.00" fill="#000000">add_2</text>
</g>
<!-- 1&#45;&gt;3 -->
<g id="edge3" class="edge">
<title>1&#45;&gt;3</title>
<path fill="none" stroke="#000000" d="M97.4782,-305.8796C103.0181,-300.603 108.4884,-294.4946 112.5,-288 119.6276,-276.4608 124.3635,-262.2104 127.4286,-249.9078"/>
<polygon fill="none" stroke="#000000" points="130.8472,-250.6582 129.6262,-240.1339 124.0177,-249.1225 130.8472,-250.6582"/>
<text text-anchor="start" x="124.5" y="-276.8" font-family="Times,serif" font-size="14.00" fill="#000000">input_copy_2</text>
<text text-anchor="middle" x="172.5" y="-261.8" font-family="Times,serif" font-size="14.00" fill="#000000">i32</text>
</g>
<!-- 4 -->
<g id="node5" class="node">
<title>4</title>
<path fill="none" stroke="#000000" d="M130,-138C130,-138 33,-138 33,-138 27,-138 21,-132 21,-126 21,-126 21,-114 21,-114 21,-108 27,-102 33,-102 33,-102 130,-102 130,-102 136,-102 142,-108 142,-114 142,-114 142,-126 142,-126 142,-132 136,-138 130,-138"/>
<text text-anchor="middle" x="81.5" y="-116.3" font-family="Times,serif" font-size="14.00" fill="#000000">wait_additions</text>
</g>
<!-- 2&#45;&gt;4 -->
<g id="edge4" class="edge">
<title>2&#45;&gt;4</title>
<path fill="none" stroke="#000000" d="M27.7819,-203.8014C27.2971,-189.883 28.4773,-170.6555 36.5,-156 38.6664,-152.0426 41.4658,-148.3623 44.608,-144.9844"/>
<polygon fill="none" stroke="#000000" points="47.0513,-147.4912 51.9219,-138.0822 42.2469,-142.4002 47.0513,-147.4912"/>
<text text-anchor="start" x="36.5" y="-174.8" font-family="Times,serif" font-size="14.00" fill="#000000">additions</text>
<text text-anchor="middle" x="70" y="-159.8" font-family="Times,serif" font-size="14.00" fill="#000000">i32</text>
</g>
<!-- 3&#45;&gt;4 -->
<g id="edge5" class="edge">
<title>3&#45;&gt;4</title>
<path fill="none" stroke="#000000" d="M127.0414,-203.7925C122.632,-190.2142 115.8046,-171.4285 107.5,-156 105.8043,-152.8496 103.869,-149.6585 101.8367,-146.5448"/>
<polygon fill="none" stroke="#000000" points="104.541,-144.3022 95.9706,-138.0732 98.786,-148.2871 104.541,-144.3022"/>
<text text-anchor="start" x="120.5" y="-174.8" font-family="Times,serif" font-size="14.00" fill="#000000">additions</text>
<text text-anchor="middle" x="154" y="-159.8" font-family="Times,serif" font-size="14.00" fill="#000000">i32</text>
</g>
<!-- 5 -->
<g id="node6" class="node">
<title>5</title>
<path fill="none" stroke="#000000" d="M113,-36C113,-36 50,-36 50,-36 44,-36 38,-30 38,-24 38,-24 38,-12 38,-12 38,-6 44,0 50,0 50,0 113,0 113,0 119,0 125,-6 125,-12 125,-12 125,-24 125,-24 125,-30 119,-36 113,-36"/>
<text text-anchor="middle" x="81.5" y="-14.3" font-family="Times,serif" font-size="14.00" fill="#000000">terminate</text>
</g>
<!-- 4&#45;&gt;5 -->
<g id="edge6" class="edge">
<title>4&#45;&gt;5</title>
<path fill="none" stroke="#000000" d="M81.5,-101.7644C81.5,-86.317 81.5,-63.9149 81.5,-46.164"/>
<polygon fill="none" stroke="#000000" points="85.0001,-46.0776 81.5,-36.0777 78.0001,-46.0777 85.0001,-46.0776"/>
<text text-anchor="start" x="81.5" y="-72.8" font-family="Times,serif" font-size="14.00" fill="#000000">some_output_queue</text>
<text text-anchor="middle" x="153.5" y="-57.8" font-family="Times,serif" font-size="14.00" fill="#000000">String</text>
</g>
</g>
</svg>
