<?xml version="1.0" encoding="UTF-8" standalone="no"?>
<!DOCTYPE svg PUBLIC "-//W3C//DTD SVG 1.1//EN"
 "http://www.w3.org/Graphics/SVG/1.1/DTD/svg11.dtd">
<!-- Generated by graphviz version 2.40.1 (0)
 -->
<!-- Title: %3 Pages: 1 -->
<svg width="234pt" height="452pt"
 viewBox="0.00 0.00 233.50 452.00" xmlns="http://www.w3.org/2000/svg" xmlns:xlink="http://www.w3.org/1999/xlink">
<g id="graph0" class="graph" transform="scale(1 1) rotate(0) translate(4 448)">
<title>%3</title>
<polygon fill="#ffffff" stroke="transparent" points="-4,4 -4,-448 229.5,-448 229.5,4 -4,4"/>
<!-- 0 -->
<g id="node1" class="node">
<title>0</title>
<path fill="none" stroke="#000000" d="M97.5,-444C97.5,-444 67.5,-444 67.5,-444 61.5,-444 55.5,-438 55.5,-432 55.5,-432 55.5,-420 55.5,-420 55.5,-414 61.5,-408 67.5,-408 67.5,-408 97.5,-408 97.5,-408 103.5,-408 109.5,-414 109.5,-420 109.5,-420 109.5,-432 109.5,-432 109.5,-438 103.5,-444 97.5,-444"/>
<text text-anchor="middle" x="82.5" y="-422.3" font-family="Times,serif" font-size="14.00" fill="#000000">start</text>
</g>
<!-- 1 -->
<g id="node2" class="node">
<title>1</title>
<path fill="none" stroke="#000000" d="M134.5,-342C134.5,-342 30.5,-342 30.5,-342 24.5,-342 18.5,-336 18.5,-330 18.5,-330 18.5,-318 18.5,-318 18.5,-312 24.5,-306 30.5,-306 30.5,-306 134.5,-306 134.5,-306 140.5,-306 146.5,-312 146.5,-318 146.5,-318 146.5,-330 146.5,-330 146.5,-336 140.5,-342 134.5,-342"/>
<text text-anchor="middle" x="82.5" y="-320.3" font-family="Times,serif" font-size="14.00" fill="#000000">duplicate_input</text>
</g>
<!-- 0&#45;&gt;1 -->
<g id="edge1" class="edge">
<title>0&#45;&gt;1</title>
<path fill="none" stroke="#000000" d="M82.5,-407.7644C82.5,-392.317 82.5,-369.9149 82.5,-352.164"/>
<polygon fill="none" stroke="#000000" points="86.0001,-352.0776 82.5,-342.0777 79.0001,-352.0777 86.0001,-352.0776"/>
<text text-anchor="start" x="82.5" y="-378.8" font-family="Times,serif" font-size="14.00" fill="#000000">input</text>
<text text-anchor="middle" x="109.5" y="-363.8" font-family="Times,serif" font-size="14.00" fill="#000000">Integer</text>
</g>
<!-- 2 -->
<g id="node3" class="node">
<title>2</title>
<path fill="none" stroke="#000000" d="M53,-240C53,-240 12,-240 12,-240 6,-240 0,-234 0,-228 0,-228 0,-216 0,-216 0,-210 6,-204 12,-204 12,-204 53,-204 53,-204 59,-204 65,-210 65,-216 65,-216 65,-228 65,-228 65,-234 59,-240 53,-240"/>
<text text-anchor="middle" x="32.5" y="-218.3" font-family="Times,serif" font-size="14.00" fill="#000000">double</text>
</g>
<!-- 1&#45;&gt;2 -->
<g id="edge2" class="edge">
<title>1&#45;&gt;2</title>
<path fill="none" stroke="#000000" d="M41.2327,-305.8754C34.5212,-301.0555 28.4753,-295.1462 24.5,-288 18.1438,-276.5738 18.9794,-262.3364 21.8866,-250.0131"/>
<polygon fill="none" stroke="#000000" points="25.304,-250.7933 24.7035,-240.2155 18.5765,-248.859 25.304,-250.7933"/>
<text text-anchor="start" x="24.5" y="-276.8" font-family="Times,serif" font-size="14.00" fill="#000000">input_copy_1</text>
<text text-anchor="middle" x="72.5" y="-261.8" font-family="Times,serif" font-size="14.00" fill="#000000">Integer</text>
</g>
<!-- 3 -->
<g id="node4" class="node">
<title>3</title>
<path fill="none" stroke="#000000" d="M154,-240C154,-240 113,-240 113,-240 107,-240 101,-234 101,-228 101,-228 101,-216 101,-216 101,-210 107,-204 113,-204 113,-204 154,-204 154,-204 160,-204 166,-210 166,-216 166,-216 166,-228 166,-228 166,-234 160,-240 154,-240"/>
<text text-anchor="middle" x="133.5" y="-218.3" font-family="Times,serif" font-size="14.00" fill="#000000">square</text>
</g>
<!-- 1&#45;&gt;3 -->
<g id="edge3" class="edge">
<title>1&#45;&gt;3</title>
<path fill="none" stroke="#000000" d="M106.3186,-305.7609C111.714,-300.5666 116.9048,-294.5273 120.5,-288 126.8188,-276.5278 130.0962,-262.4408 131.7843,-250.2316"/>
<polygon fill="none" stroke="#000000" points="135.2844,-250.4205 132.8951,-240.0986 128.3261,-249.6576 135.2844,-250.4205"/>
<text text-anchor="start" x="129.5" y="-276.8" font-family="Times,serif" font-size="14.00" fill="#000000">input_copy_2</text>
<text text-anchor="middle" x="177.5" y="-261.8" font-family="Times,serif" font-size="14.00" fill="#000000">Integer</text>
</g>
<!-- 4 -->
<g id="node5" class="node">
<title>4</title>
<path fill="none" stroke="#000000" d="M108.5,-138C108.5,-138 56.5,-138 56.5,-138 50.5,-138 44.5,-132 44.5,-126 44.5,-126 44.5,-114 44.5,-114 44.5,-108 50.5,-102 56.5,-102 56.5,-102 108.5,-102 108.5,-102 114.5,-102 120.5,-108 120.5,-114 120.5,-114 120.5,-126 120.5,-126 120.5,-132 114.5,-138 108.5,-138"/>
<text text-anchor="middle" x="82.5" y="-116.3" font-family="Times,serif" font-size="14.00" fill="#000000">multiply</text>
</g>
<!-- 2&#45;&gt;4 -->
<g id="edge4" class="edge">
<title>2&#45;&gt;4</title>
<path fill="none" stroke="#000000" d="M33.5446,-203.955C34.9834,-190.119 38.3989,-170.9277 46.5,-156 48.4367,-152.4313 50.8375,-148.9842 53.4736,-145.7299"/>
<polygon fill="none" stroke="#000000" points="56.2778,-147.8467 60.3802,-138.0784 51.0815,-143.1563 56.2778,-147.8467"/>
<text text-anchor="start" x="46.5" y="-174.8" font-family="Times,serif" font-size="14.00" fill="#000000">multiply</text>
<text text-anchor="middle" x="76.5" y="-159.8" font-family="Times,serif" font-size="14.00" fill="#000000">Integer</text>
</g>
<!-- 3&#45;&gt;4 -->
<g id="edge5" class="edge">
<title>3&#45;&gt;4</title>
<path fill="none" stroke="#000000" d="M127.2154,-203.9136C122.2547,-190.3971 114.803,-171.6357 106.5,-156 104.8651,-152.9213 103.0343,-149.7758 101.1324,-146.6889"/>
<polygon fill="none" stroke="#000000" points="104.0494,-144.7543 95.6873,-138.2485 98.1673,-148.549 104.0494,-144.7543"/>
<text text-anchor="start" x="119.5" y="-174.8" font-family="Times,serif" font-size="14.00" fill="#000000">multiply</text>
<text text-anchor="middle" x="149.5" y="-159.8" font-family="Times,serif" font-size="14.00" fill="#000000">Integer</text>
</g>
<!-- 5 -->
<g id="node6" class="node">
<title>5</title>
<path fill="none" stroke="#000000" d="M114,-36C114,-36 51,-36 51,-36 45,-36 39,-30 39,-24 39,-24 39,-12 39,-12 39,-6 45,0 51,0 51,0 114,0 114,0 120,0 126,-6 126,-12 126,-12 126,-24 126,-24 126,-30 120,-36 114,-36"/>
<text text-anchor="middle" x="82.5" y="-14.3" font-family="Times,serif" font-size="14.00" fill="#000000">terminate</text>
</g>
<!-- 4&#45;&gt;5 -->
<g id="edge6" class="edge">
<title>4&#45;&gt;5</title>
<path fill="none" stroke="#000000" d="M82.5,-101.7644C82.5,-86.317 82.5,-63.9149 82.5,-46.164"/>
<polygon fill="none" stroke="#000000" points="86.0001,-46.0776 82.5,-36.0777 79.0001,-46.0777 86.0001,-46.0776"/>
<text text-anchor="start" x="82.5" y="-72.8" font-family="Times,serif" font-size="14.00" fill="#000000">result</text>
<text text-anchor="middle" x="104" y="-57.8" font-family="Times,serif" font-size="14.00" fill="#000000">Float</text>
</g>
</g>
</svg>
