<?xml version="1.0" encoding="UTF-8" standalone="no"?>
<!DOCTYPE svg PUBLIC "-//W3C//DTD SVG 1.1//EN"
 "http://www.w3.org/Graphics/SVG/1.1/DTD/svg11.dtd">
<!-- Generated by graphviz version 2.40.1 (0)
 -->
<!-- Title: %3 Pages: 1 -->
<svg width="400pt" height="305pt"
 viewBox="0.00 0.00 400.35 305.00" xmlns="http://www.w3.org/2000/svg" xmlns:xlink="http://www.w3.org/1999/xlink">
<g id="graph0" class="graph" transform="scale(1 1) rotate(0) translate(4 301)">
<title>%3</title>
<polygon fill="#ffffff" stroke="transparent" points="-4,4 -4,-301 396.3466,-301 396.3466,4 -4,4"/>
<!-- 0 -->
<g id="node1" class="node">
<title>0</title>
<ellipse fill="none" stroke="#000000" cx="122.3466" cy="-279" rx="60.3893" ry="18"/>
<text text-anchor="middle" x="122.3466" y="-275.3" font-family="Times,serif" font-size="14.00" fill="#000000">start_node</text>
</g>
<!-- 1 -->
<g id="node2" class="node">
<title>1</title>
<ellipse fill="none" stroke="#000000" cx="122.3466" cy="-192" rx="107.781" ry="18"/>
<text text-anchor="middle" x="122.3466" y="-188.3" font-family="Times,serif" font-size="14.00" fill="#000000">duplicate_input_msg</text>
</g>
<!-- 0&#45;&gt;1 -->
<g id="edge1" class="edge">
<title>0&#45;&gt;1</title>
<path fill="none" stroke="#000000" d="M122.3466,-260.9735C122.3466,-249.1918 122.3466,-233.5607 122.3466,-220.1581"/>
<polygon fill="#000000" stroke="#000000" points="125.8467,-220.0033 122.3466,-210.0034 118.8467,-220.0034 125.8467,-220.0033"/>
<text text-anchor="middle" x="183.3466" y="-231.8" font-family="Times,serif" font-size="14.00" fill="#000000">input_msg&lt;i32&gt;</text>
</g>
<!-- 2 -->
<g id="node3" class="node">
<title>2</title>
<ellipse fill="none" stroke="#000000" cx="38.3466" cy="-105" rx="38.1938" ry="18"/>
<text text-anchor="middle" x="38.3466" y="-101.3" font-family="Times,serif" font-size="14.00" fill="#000000">add_1</text>
</g>
<!-- 1&#45;&gt;2 -->
<g id="edge2" class="edge">
<title>1&#45;&gt;2</title>
<path fill="none" stroke="#000000" d="M62.9248,-176.8615C44.566,-170.9067 27.7312,-163.6614 22.3466,-156 17.2291,-148.7187 18.1916,-139.7352 21.3968,-131.3468"/>
<polygon fill="#000000" stroke="#000000" points="24.5906,-132.781 25.7639,-122.2513 18.2803,-129.7511 24.5906,-132.781"/>
<text text-anchor="middle" x="112.3466" y="-144.8" font-family="Times,serif" font-size="14.00" fill="#000000">input_msg_copy_1&lt;i32&gt;</text>
</g>
<!-- 3 -->
<g id="node4" class="node">
<title>3</title>
<ellipse fill="none" stroke="#000000" cx="219.3466" cy="-105" rx="38.1938" ry="18"/>
<text text-anchor="middle" x="219.3466" y="-101.3" font-family="Times,serif" font-size="14.00" fill="#000000">add_2</text>
</g>
<!-- 1&#45;&gt;3 -->
<g id="edge3" class="edge">
<title>1&#45;&gt;3</title>
<path fill="none" stroke="#000000" d="M174.285,-176.1689C184.6503,-171.074 194.6879,-164.4749 202.3466,-156 208.0664,-149.6705 211.869,-141.3591 214.3942,-133.2879"/>
<polygon fill="#000000" stroke="#000000" points="217.8463,-133.9178 216.9578,-123.3603 211.0686,-132.1676 217.8463,-133.9178"/>
<text text-anchor="middle" x="302.3466" y="-144.8" font-family="Times,serif" font-size="14.00" fill="#000000">input_msg_copy_2&lt;i32&gt;</text>
</g>
<!-- 4 -->
<g id="node5" class="node">
<title>4</title>
<ellipse fill="none" stroke="#000000" cx="139.3466" cy="-18" rx="78.7863" ry="18"/>
<text text-anchor="middle" x="139.3466" y="-14.3" font-family="Times,serif" font-size="14.00" fill="#000000">wait_additions</text>
</g>
<!-- 2&#45;&gt;4 -->
<g id="edge4" class="edge">
<title>2&#45;&gt;4</title>
<path fill="none" stroke="#000000" d="M46.8489,-87.314C52.6295,-76.6695 61.0824,-63.4041 71.3466,-54 77.5762,-48.2925 84.8784,-43.2077 92.343,-38.7863"/>
<polygon fill="#000000" stroke="#000000" points="94.0866,-41.8215 101.1259,-33.9032 90.6851,-35.7035 94.0866,-41.8215"/>
<text text-anchor="middle" x="127.8466" y="-57.8" font-family="Times,serif" font-size="14.00" fill="#000000">additions&lt;i32&gt;</text>
</g>
<!-- 3&#45;&gt;4 -->
<g id="edge5" class="edge">
<title>3&#45;&gt;4</title>
<path fill="none" stroke="#000000" d="M210.8227,-87.3157C205.2977,-76.9284 197.4458,-63.932 188.3466,-54 184.2352,-49.5123 179.4903,-45.22 174.6058,-41.2627"/>
<polygon fill="#000000" stroke="#000000" points="176.4109,-38.2371 166.3408,-34.9438 172.1592,-43.798 176.4109,-38.2371"/>
<text text-anchor="middle" x="256.8466" y="-57.8" font-family="Times,serif" font-size="14.00" fill="#000000">additions&lt;i32&gt;</text>
</g>
</g>
</svg>
