<?xml version="1.0" encoding="UTF-8" standalone="no"?>
<!DOCTYPE svg PUBLIC "-//W3C//DTD SVG 1.1//EN"
 "http://www.w3.org/Graphics/SVG/1.1/DTD/svg11.dtd">
<!-- Generated by graphviz version 2.40.1 (0)
 -->
<!-- Title: %3 Pages: 1 -->
<svg width="234pt" height="554pt"
 viewBox="0.00 0.00 233.50 554.00" xmlns="http://www.w3.org/2000/svg" xmlns:xlink="http://www.w3.org/1999/xlink">
<g id="graph0" class="graph" transform="scale(1 1) rotate(0) translate(4 550)">
<title>%3</title>
<polygon fill="#ffffff" stroke="transparent" points="-4,4 -4,-550 229.5,-550 229.5,4 -4,4"/>
<!-- 0 -->
<g id="node1" class="node">
<title>0</title>
<path fill="none" stroke="#000000" d="M97.5,-546C97.5,-546 67.5,-546 67.5,-546 61.5,-546 55.5,-540 55.5,-534 55.5,-534 55.5,-522 55.5,-522 55.5,-516 61.5,-510 67.5,-510 67.5,-510 97.5,-510 97.5,-510 103.5,-510 109.5,-516 109.5,-522 109.5,-522 109.5,-534 109.5,-534 109.5,-540 103.5,-546 97.5,-546"/>
<text text-anchor="middle" x="82.5" y="-524.3" font-family="Times,serif" font-size="14.00" fill="#000000">start</text>
</g>
<!-- 1 -->
<g id="node2" class="node">
<title>1</title>
<path fill="none" stroke="#000000" d="M134.5,-444C134.5,-444 30.5,-444 30.5,-444 24.5,-444 18.5,-438 18.5,-432 18.5,-432 18.5,-420 18.5,-420 18.5,-414 24.5,-408 30.5,-408 30.5,-408 134.5,-408 134.5,-408 140.5,-408 146.5,-414 146.5,-420 146.5,-420 146.5,-432 146.5,-432 146.5,-438 140.5,-444 134.5,-444"/>
<text text-anchor="middle" x="82.5" y="-422.3" font-family="Times,serif" font-size="14.00" fill="#000000">duplicate_input</text>
</g>
<!-- 0&#45;&gt;1 -->
<g id="edge1" class="edge">
<title>0&#45;&gt;1</title>
<path fill="none" stroke="#000000" d="M82.5,-509.7644C82.5,-494.317 82.5,-471.9149 82.5,-454.164"/>
<polygon fill="none" stroke="#000000" points="86.0001,-454.0776 82.5,-444.0777 79.0001,-454.0777 86.0001,-454.0776"/>
<text text-anchor="start" x="82.5" y="-480.8" font-family="Times,serif" font-size="14.00" fill="#000000">input</text>
<text text-anchor="middle" x="109.5" y="-465.8" font-family="Times,serif" font-size="14.00" fill="#000000">Integer</text>
</g>
<!-- 2 -->
<g id="node3" class="node">
<title>2</title>
<path fill="none" stroke="#000000" d="M53,-342C53,-342 12,-342 12,-342 6,-342 0,-336 0,-330 0,-330 0,-318 0,-318 0,-312 6,-306 12,-306 12,-306 53,-306 53,-306 59,-306 65,-312 65,-318 65,-318 65,-330 65,-330 65,-336 59,-342 53,-342"/>
<text text-anchor="middle" x="32.5" y="-320.3" font-family="Times,serif" font-size="14.00" fill="#000000">double</text>
</g>
<!-- 1&#45;&gt;2 -->
<g id="edge2" class="edge">
<title>1&#45;&gt;2</title>
<path fill="none" stroke="#000000" d="M41.2327,-407.8754C34.5212,-403.0555 28.4753,-397.1462 24.5,-390 18.1438,-378.5738 18.9794,-364.3364 21.8866,-352.0131"/>
<polygon fill="none" stroke="#000000" points="25.304,-352.7933 24.7035,-342.2155 18.5765,-350.859 25.304,-352.7933"/>
<text text-anchor="start" x="24.5" y="-378.8" font-family="Times,serif" font-size="14.00" fill="#000000">input_copy_1</text>
<text text-anchor="middle" x="72.5" y="-363.8" font-family="Times,serif" font-size="14.00" fill="#000000">Integer</text>
</g>
<!-- 3 -->
<g id="node4" class="node">
<title>3</title>
<path fill="none" stroke="#000000" d="M154,-342C154,-342 113,-342 113,-342 107,-342 101,-336 101,-330 101,-330 101,-318 101,-318 101,-312 107,-306 113,-306 113,-306 154,-306 154,-306 160,-306 166,-312 166,-318 166,-318 166,-330 166,-330 166,-336 160,-342 154,-342"/>
<text text-anchor="middle" x="133.5" y="-320.3" font-family="Times,serif" font-size="14.00" fill="#000000">square</text>
</g>
<!-- 1&#45;&gt;3 -->
<g id="edge3" class="edge">
<title>1&#45;&gt;3</title>
<path fill="none" stroke="#000000" d="M106.3186,-407.7609C111.714,-402.5666 116.9048,-396.5273 120.5,-390 126.8188,-378.5278 130.0962,-364.4408 131.7843,-352.2316"/>
<polygon fill="none" stroke="#000000" points="135.2844,-352.4205 132.8951,-342.0986 128.3261,-351.6576 135.2844,-352.4205"/>
<text text-anchor="start" x="129.5" y="-378.8" font-family="Times,serif" font-size="14.00" fill="#000000">input_copy_2</text>
<text text-anchor="middle" x="177.5" y="-363.8" font-family="Times,serif" font-size="14.00" fill="#000000">Integer</text>
</g>
<!-- 4 -->
<g id="node5" class="node">
<title>4</title>
<path fill="none" stroke="#000000" d="M108.5,-240C108.5,-240 56.5,-240 56.5,-240 50.5,-240 44.5,-234 44.5,-228 44.5,-228 44.5,-216 44.5,-216 44.5,-210 50.5,-204 56.5,-204 56.5,-204 108.5,-204 108.5,-204 114.5,-204 120.5,-210 120.5,-216 120.5,-216 120.5,-228 120.5,-228 120.5,-234 114.5,-240 108.5,-240"/>
<text text-anchor="middle" x="82.5" y="-218.3" font-family="Times,serif" font-size="14.00" fill="#000000">multiply</text>
</g>
<!-- 2&#45;&gt;4 -->
<g id="edge4" class="edge">
<title>2&#45;&gt;4</title>
<path fill="none" stroke="#000000" d="M33.5446,-305.955C34.9834,-292.119 38.3989,-272.9277 46.5,-258 48.4367,-254.4313 50.8375,-250.9842 53.4736,-247.7299"/>
<polygon fill="none" stroke="#000000" points="56.2778,-249.8467 60.3802,-240.0784 51.0815,-245.1563 56.2778,-249.8467"/>
<text text-anchor="start" x="46.5" y="-276.8" font-family="Times,serif" font-size="14.00" fill="#000000">multiply</text>
<text text-anchor="middle" x="76.5" y="-261.8" font-family="Times,serif" font-size="14.00" fill="#000000">Integer</text>
</g>
<!-- 3&#45;&gt;4 -->
<g id="edge5" class="edge">
<title>3&#45;&gt;4</title>
<path fill="none" stroke="#000000" d="M127.2154,-305.9136C122.2547,-292.3971 114.803,-273.6357 106.5,-258 104.8651,-254.9213 103.0343,-251.7758 101.1324,-248.6889"/>
<polygon fill="none" stroke="#000000" points="104.0494,-246.7543 95.6873,-240.2485 98.1673,-250.549 104.0494,-246.7543"/>
<text text-anchor="start" x="119.5" y="-276.8" font-family="Times,serif" font-size="14.00" fill="#000000">multiply</text>
<text text-anchor="middle" x="149.5" y="-261.8" font-family="Times,serif" font-size="14.00" fill="#000000">Integer</text>
</g>
<!-- 5 -->
<g id="node6" class="node">
<title>5</title>
<path fill="none" stroke="#000000" d="M109.5,-138C109.5,-138 55.5,-138 55.5,-138 49.5,-138 43.5,-132 43.5,-126 43.5,-126 43.5,-114 43.5,-114 43.5,-108 49.5,-102 55.5,-102 55.5,-102 109.5,-102 109.5,-102 115.5,-102 121.5,-108 121.5,-114 121.5,-114 121.5,-126 121.5,-126 121.5,-132 115.5,-138 109.5,-138"/>
<text text-anchor="middle" x="82.5" y="-116.3" font-family="Times,serif" font-size="14.00" fill="#000000">rest_call</text>
</g>
<!-- 4&#45;&gt;5 -->
<g id="edge6" class="edge">
<title>4&#45;&gt;5</title>
<path fill="none" stroke="#000000" d="M82.5,-203.7644C82.5,-188.317 82.5,-165.9149 82.5,-148.164"/>
<polygon fill="none" stroke="#000000" points="86.0001,-148.0776 82.5,-138.0777 79.0001,-148.0777 86.0001,-148.0776"/>
<text text-anchor="start" x="82.5" y="-174.8" font-family="Times,serif" font-size="14.00" fill="#000000">rest_call</text>
<text text-anchor="middle" x="113.5" y="-159.8" font-family="Times,serif" font-size="14.00" fill="#000000">Float</text>
</g>
<!-- 6 -->
<g id="node7" class="node">
<title>6</title>
<path fill="none" stroke="#000000" d="M114,-36C114,-36 51,-36 51,-36 45,-36 39,-30 39,-24 39,-24 39,-12 39,-12 39,-6 45,0 51,0 51,0 114,0 114,0 120,0 126,-6 126,-12 126,-12 126,-24 126,-24 126,-30 120,-36 114,-36"/>
<text text-anchor="middle" x="82.5" y="-14.3" font-family="Times,serif" font-size="14.00" fill="#000000">terminate</text>
</g>
<!-- 5&#45;&gt;6 -->
<g id="edge7" class="edge">
<title>5&#45;&gt;6</title>
<path fill="none" stroke="#000000" d="M82.5,-101.7644C82.5,-86.317 82.5,-63.9149 82.5,-46.164"/>
<polygon fill="none" stroke="#000000" points="86.0001,-46.0776 82.5,-36.0777 79.0001,-46.0777 86.0001,-46.0776"/>
<text text-anchor="start" x="82.5" y="-72.8" font-family="Times,serif" font-size="14.00" fill="#000000">result</text>
<text text-anchor="middle" x="109.5" y="-57.8" font-family="Times,serif" font-size="14.00" fill="#000000">Integer</text>
</g>
</g>
</svg>
