<?xml version="1.0" encoding="UTF-8" standalone="no"?>
<!DOCTYPE svg PUBLIC "-//W3C//DTD SVG 1.1//EN"
 "http://www.w3.org/Graphics/SVG/1.1/DTD/svg11.dtd">
<!-- Generated by graphviz version 2.40.1 (0)
 -->
<!-- Title: %3 Pages: 1 -->
<svg width="400pt" height="392pt"
 viewBox="0.00 0.00 400.35 392.00" xmlns="http://www.w3.org/2000/svg" xmlns:xlink="http://www.w3.org/1999/xlink">
<g id="graph0" class="graph" transform="scale(1 1) rotate(0) translate(4 388)">
<title>%3</title>
<polygon fill="#ffffff" stroke="transparent" points="-4,4 -4,-388 396.3466,-388 396.3466,4 -4,4"/>
<!-- 0 -->
<g id="node1" class="node">
<title>0</title>
<ellipse fill="none" stroke="#000000" cx="122.3466" cy="-366" rx="60.3893" ry="18"/>
<text text-anchor="middle" x="122.3466" y="-362.3" font-family="Times,serif" font-size="14.00" fill="#000000">start_node</text>
</g>
<!-- 1 -->
<g id="node2" class="node">
<title>1</title>
<ellipse fill="none" stroke="#000000" cx="122.3466" cy="-279" rx="107.781" ry="18"/>
<text text-anchor="middle" x="122.3466" y="-275.3" font-family="Times,serif" font-size="14.00" fill="#000000">duplicate_input_msg</text>
</g>
<!-- 0&#45;&gt;1 -->
<g id="edge1" class="edge">
<title>0&#45;&gt;1</title>
<path fill="none" stroke="#000000" d="M122.3466,-347.9735C122.3466,-336.1918 122.3466,-320.5607 122.3466,-307.1581"/>
<polygon fill="#000000" stroke="#000000" points="125.8467,-307.0033 122.3466,-297.0034 118.8467,-307.0034 125.8467,-307.0033"/>
<text text-anchor="middle" x="183.3466" y="-318.8" font-family="Times,serif" font-size="14.00" fill="#000000">input_msg&lt;i32&gt;</text>
</g>
<!-- 2 -->
<g id="node3" class="node">
<title>2</title>
<ellipse fill="none" stroke="#000000" cx="38.3466" cy="-192" rx="38.1938" ry="18"/>
<text text-anchor="middle" x="38.3466" y="-188.3" font-family="Times,serif" font-size="14.00" fill="#000000">add_1</text>
</g>
<!-- 1&#45;&gt;2 -->
<g id="edge2" class="edge">
<title>1&#45;&gt;2</title>
<path fill="none" stroke="#000000" d="M62.9248,-263.8615C44.566,-257.9067 27.7312,-250.6614 22.3466,-243 17.2291,-235.7187 18.1916,-226.7352 21.3968,-218.3468"/>
<polygon fill="#000000" stroke="#000000" points="24.5906,-219.781 25.7639,-209.2513 18.2803,-216.7511 24.5906,-219.781"/>
<text text-anchor="middle" x="112.3466" y="-231.8" font-family="Times,serif" font-size="14.00" fill="#000000">input_msg_copy_1&lt;i32&gt;</text>
</g>
<!-- 3 -->
<g id="node4" class="node">
<title>3</title>
<ellipse fill="none" stroke="#000000" cx="219.3466" cy="-192" rx="38.1938" ry="18"/>
<text text-anchor="middle" x="219.3466" y="-188.3" font-family="Times,serif" font-size="14.00" fill="#000000">add_2</text>
</g>
<!-- 1&#45;&gt;3 -->
<g id="edge3" class="edge">
<title>1&#45;&gt;3</title>
<path fill="none" stroke="#000000" d="M174.285,-263.1689C184.6503,-258.074 194.6879,-251.4749 202.3466,-243 208.0664,-236.6705 211.869,-228.3591 214.3942,-220.2879"/>
<polygon fill="#000000" stroke="#000000" points="217.8463,-220.9178 216.9578,-210.3603 211.0686,-219.1676 217.8463,-220.9178"/>
<text text-anchor="middle" x="302.3466" y="-231.8" font-family="Times,serif" font-size="14.00" fill="#000000">input_msg_copy_2&lt;i32&gt;</text>
</g>
<!-- 4 -->
<g id="node5" class="node">
<title>4</title>
<ellipse fill="none" stroke="#000000" cx="139.3466" cy="-105" rx="78.7863" ry="18"/>
<text text-anchor="middle" x="139.3466" y="-101.3" font-family="Times,serif" font-size="14.00" fill="#000000">wait_additions</text>
</g>
<!-- 2&#45;&gt;4 -->
<g id="edge4" class="edge">
<title>2&#45;&gt;4</title>
<path fill="none" stroke="#000000" d="M46.8489,-174.314C52.6295,-163.6695 61.0824,-150.4041 71.3466,-141 77.5762,-135.2925 84.8784,-130.2077 92.343,-125.7863"/>
<polygon fill="#000000" stroke="#000000" points="94.0866,-128.8215 101.1259,-120.9032 90.6851,-122.7035 94.0866,-128.8215"/>
<text text-anchor="middle" x="127.8466" y="-144.8" font-family="Times,serif" font-size="14.00" fill="#000000">additions&lt;i32&gt;</text>
</g>
<!-- 3&#45;&gt;4 -->
<g id="edge5" class="edge">
<title>3&#45;&gt;4</title>
<path fill="none" stroke="#000000" d="M210.8227,-174.3157C205.2977,-163.9284 197.4458,-150.932 188.3466,-141 184.2352,-136.5123 179.4903,-132.22 174.6058,-128.2627"/>
<polygon fill="#000000" stroke="#000000" points="176.4109,-125.2371 166.3408,-121.9438 172.1592,-130.798 176.4109,-125.2371"/>
<text text-anchor="middle" x="256.8466" y="-144.8" font-family="Times,serif" font-size="14.00" fill="#000000">additions&lt;i32&gt;</text>
</g>
<!-- 5 -->
<g id="node6" class="node">
<title>5</title>
<ellipse fill="none" stroke="#000000" cx="139.3466" cy="-18" rx="56.59" ry="18"/>
<text text-anchor="middle" x="139.3466" y="-14.3" font-family="Times,serif" font-size="14.00" fill="#000000">terminate</text>
</g>
<!-- 4&#45;&gt;5 -->
<g id="edge6" class="edge">
<title>4&#45;&gt;5</title>
<path fill="none" stroke="#000000" d="M139.3466,-86.9735C139.3466,-75.1918 139.3466,-59.5607 139.3466,-46.1581"/>
<polygon fill="#000000" stroke="#000000" points="142.8467,-46.0033 139.3466,-36.0034 135.8467,-46.0034 142.8467,-46.0033"/>
<text text-anchor="middle" x="245.8466" y="-57.8" font-family="Times,serif" font-size="14.00" fill="#000000">some_output_queue&lt;String&gt;</text>
</g>
</g>
</svg>
