<?xml version="1.0" encoding="UTF-8" standalone="no"?>
<!DOCTYPE svg PUBLIC "-//W3C//DTD SVG 1.1//EN"
 "http://www.w3.org/Graphics/SVG/1.1/DTD/svg11.dtd">
<!-- Generated by graphviz version 2.40.1 (0)
 -->
<!-- Title: %3 Pages: 1 -->
<svg width="313pt" height="452pt"
 viewBox="0.00 0.00 312.89 452.00" xmlns="http://www.w3.org/2000/svg" xmlns:xlink="http://www.w3.org/1999/xlink">
<g id="graph0" class="graph" transform="scale(1 1) rotate(0) translate(4 448)">
<title>%3</title>
<polygon fill="#ffffff" stroke="transparent" points="-4,4 -4,-448 308.8904,-448 308.8904,4 -4,4"/>
<!-- 0 -->
<g id="node1" class="node">
<title>0</title>
<ellipse fill="none" stroke="#000000" cx="107.8904" cy="-426" rx="60.3893" ry="18"/>
<text text-anchor="middle" x="107.8904" y="-422.3" font-family="Times,serif" font-size="14.00" fill="#000000">start_node</text>
</g>
<!-- 1 -->
<g id="node2" class="node">
<title>1</title>
<ellipse fill="none" stroke="#000000" cx="107.8904" cy="-324" rx="107.781" ry="18"/>
<text text-anchor="middle" x="107.8904" y="-320.3" font-family="Times,serif" font-size="14.00" fill="#000000">duplicate_input_msg</text>
</g>
<!-- 0&#45;&gt;1 -->
<g id="edge1" class="edge">
<title>0&#45;&gt;1</title>
<path fill="none" stroke="#000000" d="M107.8904,-407.7644C107.8904,-392.317 107.8904,-369.9149 107.8904,-352.164"/>
<polygon fill="#000000" stroke="#000000" points="111.3905,-352.0776 107.8904,-342.0777 104.3905,-352.0777 111.3905,-352.0776"/>
<text text-anchor="start" x="107.8904" y="-378.8" font-family="Times,serif" font-size="14.00" fill="#000000">input_msg</text>
<text text-anchor="middle" x="145.8904" y="-363.8" font-family="Times,serif" font-size="14.00" fill="#000000">i32</text>
</g>
<!-- 2 -->
<g id="node3" class="node">
<title>2</title>
<ellipse fill="none" stroke="#000000" cx="59.8904" cy="-222" rx="38.1938" ry="18"/>
<text text-anchor="middle" x="59.8904" y="-218.3" font-family="Times,serif" font-size="14.00" fill="#000000">add_1</text>
</g>
<!-- 1&#45;&gt;2 -->
<g id="edge2" class="edge">
<title>1&#45;&gt;2</title>
<path fill="none" stroke="#000000" d="M53.7963,-308.4046C44.7064,-303.3555 36.4363,-296.7149 30.8904,-288 23.7321,-276.7512 26.4558,-270.5742 30.8904,-258 32.3018,-253.998 34.3674,-250.1135 36.7566,-246.4685"/>
<polygon fill="#000000" stroke="#000000" points="39.5654,-248.5567 42.7634,-238.456 33.9645,-244.3578 39.5654,-248.5567"/>
<text text-anchor="start" x="30.8904" y="-276.8" font-family="Times,serif" font-size="14.00" fill="#000000">input_msg_copy_1</text>
<text text-anchor="middle" x="97.3904" y="-261.8" font-family="Times,serif" font-size="14.00" fill="#000000">i32</text>
</g>
<!-- 3 -->
<g id="node4" class="node">
<title>3</title>
<ellipse fill="none" stroke="#000000" cx="169.8904" cy="-222" rx="38.1938" ry="18"/>
<text text-anchor="middle" x="169.8904" y="-218.3" font-family="Times,serif" font-size="14.00" fill="#000000">add_2</text>
</g>
<!-- 1&#45;&gt;3 -->
<g id="edge3" class="edge">
<title>1&#45;&gt;3</title>
<path fill="none" stroke="#000000" d="M144.9716,-306.9732C152.3716,-301.899 159.2763,-295.61 163.8904,-288 170.6265,-276.8903 172.5875,-262.74 172.6752,-250.3931"/>
<polygon fill="#000000" stroke="#000000" points="176.1648,-250.0103 172.3431,-240.1288 169.1684,-250.2368 176.1648,-250.0103"/>
<text text-anchor="start" x="171.8904" y="-276.8" font-family="Times,serif" font-size="14.00" fill="#000000">input_msg_copy_2</text>
<text text-anchor="middle" x="238.3904" y="-261.8" font-family="Times,serif" font-size="14.00" fill="#000000">i32</text>
</g>
<!-- 4 -->
<g id="node5" class="node">
<title>4</title>
<ellipse fill="none" stroke="#000000" cx="106.8904" cy="-120" rx="78.7863" ry="18"/>
<text text-anchor="middle" x="106.8904" y="-116.3" font-family="Times,serif" font-size="14.00" fill="#000000">wait_additions</text>
</g>
<!-- 2&#45;&gt;4 -->
<g id="edge4" class="edge">
<title>2&#45;&gt;4</title>
<path fill="none" stroke="#000000" d="M60.3621,-203.7165C61.3749,-189.9285 64.2119,-170.9094 71.8904,-156 73.8211,-152.2511 76.2719,-148.6336 78.9773,-145.2316"/>
<polygon fill="#000000" stroke="#000000" points="81.6163,-147.5309 85.6271,-137.7245 76.3764,-142.8894 81.6163,-147.5309"/>
<text text-anchor="start" x="71.8904" y="-174.8" font-family="Times,serif" font-size="14.00" fill="#000000">additions</text>
<text text-anchor="middle" x="105.3904" y="-159.8" font-family="Times,serif" font-size="14.00" fill="#000000">i32</text>
</g>
<!-- 3&#45;&gt;4 -->
<g id="edge5" class="edge">
<title>3&#45;&gt;4</title>
<path fill="none" stroke="#000000" d="M163.1587,-204.1791C157.5975,-190.4636 148.9941,-171.3251 138.8904,-156 136.5603,-152.4656 133.9003,-148.9213 131.1321,-145.5092"/>
<polygon fill="#000000" stroke="#000000" points="133.742,-143.1759 124.5807,-137.8543 128.4238,-147.7275 133.742,-143.1759"/>
<text text-anchor="start" x="155.8904" y="-174.8" font-family="Times,serif" font-size="14.00" fill="#000000">additions</text>
<text text-anchor="middle" x="189.3904" y="-159.8" font-family="Times,serif" font-size="14.00" fill="#000000">i32</text>
</g>
<!-- 5 -->
<g id="node6" class="node">
<title>5</title>
<ellipse fill="none" stroke="#000000" cx="106.8904" cy="-18" rx="56.59" ry="18"/>
<text text-anchor="middle" x="106.8904" y="-14.3" font-family="Times,serif" font-size="14.00" fill="#000000">terminate</text>
</g>
<!-- 4&#45;&gt;5 -->
<g id="edge6" class="edge">
<title>4&#45;&gt;5</title>
<path fill="none" stroke="#000000" d="M106.8904,-101.7644C106.8904,-86.317 106.8904,-63.9149 106.8904,-46.164"/>
<polygon fill="#000000" stroke="#000000" points="110.3905,-46.0776 106.8904,-36.0777 103.3905,-46.0777 110.3905,-46.0776"/>
<text text-anchor="start" x="106.8904" y="-72.8" font-family="Times,serif" font-size="14.00" fill="#000000">some_output_queue</text>
<text text-anchor="middle" x="178.8904" y="-57.8" font-family="Times,serif" font-size="14.00" fill="#000000">String</text>
</g>
</g>
</svg>
