<?xml version="1.0" encoding="UTF-8" standalone="no"?>
<!DOCTYPE svg PUBLIC "-//W3C//DTD SVG 1.1//EN"
 "http://www.w3.org/Graphics/SVG/1.1/DTD/svg11.dtd">
<!-- Generated by graphviz version 2.40.1 (0)
 -->
<!-- Title: %3 Pages: 1 -->
<svg width="292pt" height="452pt"
 viewBox="0.00 0.00 292.00 452.00" xmlns="http://www.w3.org/2000/svg" xmlns:xlink="http://www.w3.org/1999/xlink">
<g id="graph0" class="graph" transform="scale(1 1) rotate(0) translate(4 448)">
<title>%3</title>
<polygon fill="#ffffff" stroke="transparent" points="-4,4 -4,-448 288,-448 288,4 -4,4"/>
<!-- 0 -->
<g id="node1" class="node">
<title>0</title>
<path fill="none" stroke="#000000" d="M117.5,-444C117.5,-444 48.5,-444 48.5,-444 42.5,-444 36.5,-438 36.5,-432 36.5,-432 36.5,-420 36.5,-420 36.5,-414 42.5,-408 48.5,-408 48.5,-408 117.5,-408 117.5,-408 123.5,-408 129.5,-414 129.5,-420 129.5,-420 129.5,-432 129.5,-432 129.5,-438 123.5,-444 117.5,-444"/>
<text text-anchor="middle" x="83" y="-422.3" font-family="Times,serif" font-size="14.00" fill="#000000">start_node</text>
</g>
<!-- 1 -->
<g id="node2" class="node">
<title>1</title>
<path fill="none" stroke="#000000" d="M154,-342C154,-342 12,-342 12,-342 6,-342 0,-336 0,-330 0,-330 0,-318 0,-318 0,-312 6,-306 12,-306 12,-306 154,-306 154,-306 160,-306 166,-312 166,-318 166,-318 166,-330 166,-330 166,-336 160,-342 154,-342"/>
<text text-anchor="middle" x="83" y="-320.3" font-family="Times,serif" font-size="14.00" fill="#000000">duplicate_input_msg</text>
</g>
<!-- 0&#45;&gt;1 -->
<g id="edge1" class="edge">
<title>0&#45;&gt;1</title>
<path fill="none" stroke="#000000" d="M83,-407.7644C83,-392.317 83,-369.9149 83,-352.164"/>
<polygon fill="none" stroke="#000000" points="86.5001,-352.0776 83,-342.0777 79.5001,-352.0777 86.5001,-352.0776"/>
<text text-anchor="start" x="83" y="-378.8" font-family="Times,serif" font-size="14.00" fill="#000000">input_msg</text>
<text text-anchor="middle" x="121" y="-363.8" font-family="Times,serif" font-size="14.00" fill="#000000">i32</text>
</g>
<!-- 2 -->
<g id="node3" class="node">
<title>2</title>
<path fill="none" stroke="#000000" d="M55.5,-240C55.5,-240 20.5,-240 20.5,-240 14.5,-240 8.5,-234 8.5,-228 8.5,-228 8.5,-216 8.5,-216 8.5,-210 14.5,-204 20.5,-204 20.5,-204 55.5,-204 55.5,-204 61.5,-204 67.5,-210 67.5,-216 67.5,-216 67.5,-228 67.5,-228 67.5,-234 61.5,-240 55.5,-240"/>
<text text-anchor="middle" x="38" y="-218.3" font-family="Times,serif" font-size="14.00" fill="#000000">add_1</text>
</g>
<!-- 1&#45;&gt;2 -->
<g id="edge2" class="edge">
<title>1&#45;&gt;2</title>
<path fill="none" stroke="#000000" d="M24.6887,-305.9045C17.2841,-301.2172 10.6744,-295.3454 6,-288 -1.1583,-276.7512 1.2616,-270.463 6,-258 7.3262,-254.512 9.1623,-251.1461 11.2904,-247.9657"/>
<polygon fill="none" stroke="#000000" points="14.0881,-250.0695 17.4555,-240.0241 8.5586,-245.777 14.0881,-250.0695"/>
<text text-anchor="start" x="6" y="-276.8" font-family="Times,serif" font-size="14.00" fill="#000000">input_msg_copy_1</text>
<text text-anchor="middle" x="72.5" y="-261.8" font-family="Times,serif" font-size="14.00" fill="#000000">i32</text>
</g>
<!-- 3 -->
<g id="node4" class="node">
<title>3</title>
<path fill="none" stroke="#000000" d="M173.5,-240C173.5,-240 138.5,-240 138.5,-240 132.5,-240 126.5,-234 126.5,-228 126.5,-228 126.5,-216 126.5,-216 126.5,-210 132.5,-204 138.5,-204 138.5,-204 173.5,-204 173.5,-204 179.5,-204 185.5,-210 185.5,-216 185.5,-216 185.5,-228 185.5,-228 185.5,-234 179.5,-240 173.5,-240"/>
<text text-anchor="middle" x="156" y="-218.3" font-family="Times,serif" font-size="14.00" fill="#000000">add_2</text>
</g>
<!-- 1&#45;&gt;3 -->
<g id="edge3" class="edge">
<title>1&#45;&gt;3</title>
<path fill="none" stroke="#000000" d="M119.7824,-305.9957C127.0138,-301.0248 133.9227,-295.0258 139,-288 146.9593,-276.9863 151.1986,-262.5718 153.4538,-250.0242"/>
<polygon fill="none" stroke="#000000" points="156.93,-250.4414 154.9195,-240.0391 150.0042,-249.4247 156.93,-250.4414"/>
<text text-anchor="start" x="151" y="-276.8" font-family="Times,serif" font-size="14.00" fill="#000000">input_msg_copy_2</text>
<text text-anchor="middle" x="217.5" y="-261.8" font-family="Times,serif" font-size="14.00" fill="#000000">i32</text>
</g>
<!-- 4 -->
<g id="node5" class="node">
<title>4</title>
<path fill="none" stroke="#000000" d="M147.5,-138C147.5,-138 50.5,-138 50.5,-138 44.5,-138 38.5,-132 38.5,-126 38.5,-126 38.5,-114 38.5,-114 38.5,-108 44.5,-102 50.5,-102 50.5,-102 147.5,-102 147.5,-102 153.5,-102 159.5,-108 159.5,-114 159.5,-114 159.5,-126 159.5,-126 159.5,-132 153.5,-138 147.5,-138"/>
<text text-anchor="middle" x="99" y="-116.3" font-family="Times,serif" font-size="14.00" fill="#000000">wait_additions</text>
</g>
<!-- 2&#45;&gt;4 -->
<g id="edge4" class="edge">
<title>2&#45;&gt;4</title>
<path fill="none" stroke="#000000" d="M39.203,-203.9579C40.8512,-189.9455 44.7552,-170.5206 54,-156 56.4851,-152.0967 59.5411,-148.4287 62.8805,-145.0385"/>
<polygon fill="none" stroke="#000000" points="65.4909,-147.3953 70.5322,-138.0768 60.7801,-142.2176 65.4909,-147.3953"/>
<text text-anchor="start" x="54" y="-174.8" font-family="Times,serif" font-size="14.00" fill="#000000">additions</text>
<text text-anchor="middle" x="87.5" y="-159.8" font-family="Times,serif" font-size="14.00" fill="#000000">i32</text>
</g>
<!-- 3&#45;&gt;4 -->
<g id="edge5" class="edge">
<title>3&#45;&gt;4</title>
<path fill="none" stroke="#000000" d="M148.5824,-203.8917C142.7837,-190.3641 134.1875,-171.5982 125,-156 123.1842,-152.9173 121.1724,-149.7692 119.0953,-146.6808"/>
<polygon fill="none" stroke="#000000" points="121.7833,-144.4178 113.177,-138.2386 116.0514,-148.4361 121.7833,-144.4178"/>
<text text-anchor="start" x="139" y="-174.8" font-family="Times,serif" font-size="14.00" fill="#000000">additions</text>
<text text-anchor="middle" x="172.5" y="-159.8" font-family="Times,serif" font-size="14.00" fill="#000000">i32</text>
</g>
<!-- 5 -->
<g id="node6" class="node">
<title>5</title>
<path fill="none" stroke="#000000" d="M130.5,-36C130.5,-36 67.5,-36 67.5,-36 61.5,-36 55.5,-30 55.5,-24 55.5,-24 55.5,-12 55.5,-12 55.5,-6 61.5,0 67.5,0 67.5,0 130.5,0 130.5,0 136.5,0 142.5,-6 142.5,-12 142.5,-12 142.5,-24 142.5,-24 142.5,-30 136.5,-36 130.5,-36"/>
<text text-anchor="middle" x="99" y="-14.3" font-family="Times,serif" font-size="14.00" fill="#000000">terminate</text>
</g>
<!-- 4&#45;&gt;5 -->
<g id="edge6" class="edge">
<title>4&#45;&gt;5</title>
<path fill="none" stroke="#000000" d="M99,-101.7644C99,-86.317 99,-63.9149 99,-46.164"/>
<polygon fill="none" stroke="#000000" points="102.5001,-46.0776 99,-36.0777 95.5001,-46.0777 102.5001,-46.0776"/>
<text text-anchor="start" x="99" y="-72.8" font-family="Times,serif" font-size="14.00" fill="#000000">some_output_queue</text>
<text text-anchor="middle" x="171" y="-57.8" font-family="Times,serif" font-size="14.00" fill="#000000">String</text>
</g>
</g>
</svg>
